<?xml version="1.0" encoding="UTF-8"?>
<svg width="1440px" height="1024px" viewBox="0 0 1440 1024" version="1.1" xmlns="http://www.w3.org/2000/svg" xmlns:xlink="http://www.w3.org/1999/xlink">
    <!-- Generator: Sketch 61.2 (89653) - https://sketch.com -->
    <title>Logo</title>
    <desc>Created with Sketch.</desc>
    <g id="Logo" stroke="none" stroke-width="1" fill="none" fill-rule="evenodd">
        <rect fill="#FFFFFF" x="0" y="0" width="1440" height="1024"></rect>
        <g transform="translate(372.000000, 447.000000)" fill-rule="nonzero">
            <g id="Icon" transform="translate(511.100000, 0.000000)">
                <ellipse id="Oval" fill="#35BF2E" cx="145.601852" cy="9.44339623" rx="10.2777778" ry="9.44339623"></ellipse>
                <path d="M161.050992,5.31530612 C159.630288,4.69263559 158.209584,5.93797666 158.412542,7.39087458 C158.412542,7.80598827 158.412542,8.22110196 158.412542,8.63621565 C158.412542,10.7117841 158.006626,12.5797957 157.194796,14.2402505 C156.78888,15.2780347 156.991838,16.3158189 158.006626,16.7309326 C167.34268,21.9198538 173.634369,32.0901392 173.634369,43.5057657 C173.634369,60.3178702 160.239161,74.2241788 143.59663,74.2241788 C135.68128,74.2241788 122.691987,65.7143482 108.079033,50.7702553 C107.267202,49.9400279 106.049456,49.9400279 105.440583,50.7702553 L99.9607249,56.1667333 C99.1488942,56.9969607 99.1488942,58.2423017 99.9607249,58.8649723 C117.618045,76.714861 132.230999,85.8473622 143.59663,85.8473622 C166.53085,86.054919 185,67.1672461 185,43.9208794 C185,26.9012181 175.055073,12.164682 161.050992,5.31530612 Z" id="Path" fill="#000000"></path>
                <path d="M28.7130925,74.1255444 C18.5311448,69.091129 11.4037814,58.3929964 11.4037814,46.2264927 C11.4037814,29.2353409 24.8439523,15.1809314 41.5423465,15.1809314 C49.6879047,15.1809314 63.3317146,24.6204602 78.6046361,40.3530081 C79.4191919,41.1920773 80.6410256,41.1920773 81.2519425,40.3530081 C82.6774152,38.884637 85.1210826,36.3674293 86.7501943,34.8990582 C87.5647501,34.0599889 87.5647501,32.8013851 86.7501943,32.1720832 C73.9209402,18.7469756 56.0007123,3.43396226 41.5423465,3.43396226 C18.5311448,3.43396226 0,22.5227871 0,46.2264927 C0,64.0567137 10.5892256,79.1599597 25.4548692,85.6627462 C26.6767029,86.2920481 28.1021756,85.2432116 28.1021756,83.7748404 C28.1021756,83.5650731 28.1021756,83.3553058 28.1021756,83.1455385 C28.1021756,80.8380982 28.7130925,78.7404251 29.5276483,77.0622866 C30.1385651,75.8036828 29.7312872,74.545079 28.7130925,74.1255444 Z" id="Path" fill="#000000"></path>
                <path d="M130.922633,18.5601538 C131.738177,18.1483968 132.145949,17.1190043 131.738177,16.0896119 C130.922633,14.4425839 130.51486,12.383799 130.51486,10.3250141 C130.51486,9.91325708 130.51486,9.50150009 130.51486,9.08974311 C130.718747,7.64859366 129.291544,6.4133227 127.864341,7.03095818 C109.310705,16.2954904 90.5531823,38.1186106 87.9026628,41.206788 C79.7472183,50.8830772 65.8829626,64.4710577 54.057568,71.2650479 C53.0381374,71.8826834 52.8342513,73.1179544 53.4459097,73.9414684 C54.2614541,75.1767393 54.8731125,78.4707952 55.0769986,80.7354586 C55.2808847,82.1766081 56.7080875,82.7942435 57.9314042,82.1766081 C76.0772682,72.7061974 94.2231323,51.5007126 96.6697657,48.6184137 C104.82521,39.1480031 118.893352,25.354144 130.922633,18.5601538 Z" id="Path" fill="#000000"></path>
                <ellipse id="Oval" fill="#FF7B00" cx="41.1111111" cy="81.5566038" rx="10.2777778" ry="9.44339623"></ellipse>
            </g>
            <path d="M430.234319,93 C442.713753,93 452.144559,88.8249064 458.526735,80.4747191 C464.908912,72.1245318 468.1,61.3033708 468.1,48.011236 C468.1,34.7191011 464.908912,23.8979401 458.526735,15.5477528 C452.144559,7.19756554 442.713753,3.02247191 430.234319,3.02247191 C417.754884,3.02247191 408.381063,7.19756554 402.112853,15.5477528 C395.844644,23.8979401 392.71054,34.7191011 392.71054,48.011236 C392.71054,61.3033708 395.844644,72.1529338 402.112853,80.5599251 C408.381063,88.8533084 417.754884,93 430.234319,93 Z M345.357069,73.5730337 C351.021892,73.5730337 355.614139,77.7693162 355.614139,82.9456929 C355.614139,88.1220696 351.021892,92.3183521 345.357069,92.3183521 C339.692246,92.3183521 335.1,88.1220696 335.1,82.9456929 C335.1,77.7693162 339.692246,73.5730337 345.357069,73.5730337 Z M379.547301,22.4494382 L379.547301,90.6142322 L366.555013,90.6142322 L366.555013,22.4494382 C370.885775,24.9150289 375.216538,24.9150289 379.547301,22.4494382 L379.547301,22.4494382 Z M430.319794,14.6104869 C438.52545,14.6104869 444.708183,17.7063046 448.867995,23.8979401 C453.027806,30.0895755 455.107712,38.1273408 455.107712,48.011236 C455.107712,57.8951311 453.027806,65.9328964 448.867995,72.1245318 C444.708183,78.3161673 438.52545,81.411985 430.319794,81.411985 C422.114139,81.411985 415.959897,78.3161673 411.857069,72.1245318 C407.754242,65.9328964 405.702828,57.8951311 405.702828,48.011236 C405.702828,38.1273408 407.754242,30.1179775 411.857069,23.9831461 C415.959897,17.7347066 422.114139,14.6104869 430.319794,14.6104869 Z M372.709254,2 C378.374078,2 382.966324,6.19628245 382.966324,11.3726592 C382.966324,16.5490359 378.374078,20.7453184 372.709254,20.7453184 C367.044431,20.7453184 362.452185,16.5490359 362.452185,11.3726592 C362.452185,6.19628245 367.044431,2 372.709254,2 Z" id=".io" fill="#000000"></path>
            <path d="M14.8117212,90.6442953 L14.8117212,62.3463087 C15.381943,33.366443 25.7029567,18.0809843 45.7747624,16.4899329 L45.7747624,16.4899329 L44.9194298,3.53422819 C38.7610348,3.53422819 33.0588173,5.35257271 27.8127772,8.98926174 C22.5667371,12.6259508 18.2330517,17.9673378 14.8117212,25.0134228 L14.8117212,25.0134228 L11.3903907,4.55704698 L0.1,5.40939597 L1.81066526,22.4563758 L1.81066526,90.6442953 L14.8117212,90.6442953 Z M80.1591341,93.0308725 C92.0197466,93.0308725 101.143295,87.4053691 107.529778,76.1543624 L107.529778,76.1543624 C103.595094,80.2533689 103.595094,80.2533689 107.529778,76.1543624 C111.464462,72.055356 115.627081,71.203007 120.017635,73.5973154 L120.017635,73.5973154 L120.017635,12.9100671 C110.551954,6.31856823 99.9173178,3.02281879 88.1137276,3.02281879 C76.3101373,3.02281879 66.445301,7.36979866 58.5192186,16.0637584 C50.5931362,24.7577181 46.630095,36.0655481 46.630095,49.9872483 C46.630095,63.9089485 49.7663147,74.563311 56.038754,81.9503356 C62.3111932,89.3373602 70.35132,93.0308725 80.1591341,93.0308725 Z M116.596304,75.3020134 C122.26495,75.3020134 126.860296,79.4997195 126.860296,84.6778523 C126.860296,89.8559852 122.26495,94.0536913 116.596304,94.0536913 C110.927658,94.0536913 106.332313,89.8559852 106.332313,84.6778523 C106.332313,79.4997195 110.927658,75.3020134 116.596304,75.3020134 Z M88.7124604,14.6147651 C94.9888322,14.6147651 100.893102,15.9390648 106.42527,18.5876641 L107.016579,18.8765101 L107.016579,42.5718121 C107.016579,54.9592841 104.678669,64.5340045 100.002851,71.2959732 C95.3270327,78.0579418 89.5963041,81.4389262 82.8106653,81.4389262 C76.0250264,81.4389262 70.4653643,78.7114094 66.131679,73.2563758 C61.7979937,67.8013423 59.631151,59.9597315 59.631151,49.7315436 C59.631151,39.3897092 62.3682154,30.9514541 67.8423442,24.4167785 C73.3164731,17.8821029 80.2731785,14.6147651 88.7124604,14.6147651 Z M154.402006,129 L154.402006,89.7919463 C160.560401,91.9512304 166.661774,93.0308725 172.706125,93.0308725 C184.90887,93.0308725 194.973284,88.6838926 202.899366,79.9899329 C210.825449,71.2959732 214.78849,59.9881432 214.78849,46.066443 C214.78849,32.1447427 211.65227,21.4903803 205.379831,14.1033557 C199.107392,6.7163311 191.067265,3.02281879 181.259451,3.02281879 C169.398838,3.02281879 160.27529,8.76196868 153.888807,20.2402685 L153.888807,20.2402685 L150.980676,4.55704698 L139.690285,5.40939597 L141.40095,22.4563758 L141.40095,129 L154.402006,129 Z M172.706125,81.4389262 C166.433685,81.4389262 160.332313,79.8478747 154.402006,76.6657718 L154.402006,76.6657718 L154.402006,52.1181208 C154.630095,40.0715884 157.082049,30.809396 161.757867,24.3315436 C166.433685,17.8536913 172.107392,14.6147651 178.778986,14.6147651 C185.450581,14.6147651 190.953221,17.3422819 195.286906,22.7973154 C199.620591,28.252349 201.787434,36.150783 201.787434,46.4926174 C201.787434,56.7208054 199.05037,65.1022371 193.576241,71.6369128 C188.102112,78.1715884 181.145407,81.4389262 172.706125,81.4389262 Z M243.185533,22.4563758 L243.185533,90.6442953 L230.184477,90.6442953 L230.184477,22.4563758 C234.518163,24.922803 238.851848,24.922803 243.185533,22.4563758 L243.185533,22.4563758 Z M236.342872,2 C242.011518,2 246.606864,6.19770607 246.606864,11.3758389 C246.606864,16.5539718 242.011518,20.7516779 236.342872,20.7516779 C230.674226,20.7516779 226.078881,16.5539718 226.078881,11.3758389 C226.078881,6.19770607 230.674226,2 236.342872,2 Z M295.446357,93.0308725 C306.337592,93.0308725 315.888807,89.50783 324.1,82.461745 L324.1,82.461745 L318.968004,73.2563758 C312.353432,78.7114094 304.484372,81.4389262 295.360824,81.4389262 C288.17603,81.4389262 282.274234,78.7966443 277.655438,73.5120805 C273.036642,68.2275168 270.727244,60.2722595 270.727244,49.6463087 C270.727244,39.0203579 273.23622,30.5252796 278.254171,24.1610738 C283.272122,17.796868 290.000739,14.6147651 298.440021,14.6147651 C304.598416,14.6147651 310.699789,16.2626398 316.744139,19.5583893 L316.744139,19.5583893 L319.994403,9.15973154 C313.265787,5.06845638 305.966948,3.02281879 298.097888,3.02281879 C285.438965,3.02281879 275.545618,7.42662192 268.417846,16.2342282 C261.290074,25.0418345 257.726188,36.4064877 257.726188,50.3281879 C257.726188,64.2498881 261.290074,74.8474273 268.417846,82.1208054 C275.545618,89.3941834 284.555121,93.0308725 295.446357,93.0308725 Z" id="rapic" fill="#000000"></path>
        </g>
    </g>
</svg>